<svg width="142" height="40" viewBox="0 0 142 40" fill="none" xmlns="http://www.w3.org/2000/svg">
<path d="M123.287 18.6735C123.284 18.6735 123.282 18.6711 123.282 18.6681C123.282 16.8779 123.282 15.0878 123.282 13.3083C123.282 11.9026 123.808 11.3768 125.203 11.3768C128.486 11.3768 131.759 11.3768 135.043 11.3768C136.985 11.3768 138.229 10.4433 138.83 8.5547C139.26 7.19194 139.088 5.88281 138.401 4.64881C137.757 3.48992 136.856 2.85684 135.418 2.9856C134.238 3.10364 133.036 3.03926 131.845 2.9856C130.89 2.94268 130.225 2.28812 130.289 1.5048C130.353 0.614171 130.911 0.0561925 131.77 0.0669229C133.68 0.0776533 135.59 -0.179895 137.511 0.249322C138.38 0.44247 139.056 0.871682 139.635 1.45113C143.09 4.8956 142.758 10.8403 138.648 13.5443C137.832 14.0809 136.953 14.3813 135.944 14.3706C133.057 14.3384 130.182 14.392 127.295 14.3384C126.49 14.3277 126.233 14.4994 126.244 15.3578C126.297 18.3409 126.265 21.3239 126.265 24.307C126.265 24.9723 126.104 25.5624 125.46 25.8951C124.945 26.1633 124.43 26.1311 123.958 25.8092C123.389 25.4444 123.293 24.865 123.293 24.2426C123.293 22.388 123.293 20.5334 123.293 18.6789C123.293 18.6759 123.29 18.6735 123.287 18.6735Z" fill="url(#paint0_linear_34_4691)"/>
<path d="M34.2503 5.89354C34.2444 5.89354 34.2392 5.89718 34.2371 5.90268C32.9614 9.34408 31.6963 12.7748 30.4205 16.2162C29.3904 19.0061 28.3602 21.8068 27.3194 24.5967C26.8687 25.8092 26.1927 26.2277 25.2699 25.9165C24.3793 25.6054 24.1217 24.822 24.5724 23.5988C26.6005 18.0726 28.65 12.5464 30.6888 7.02022C31.3648 5.18532 32.073 3.37188 32.7168 1.52624C32.9958 0.732191 33.4357 0.120548 34.2942 0.109818C35.2063 0.109818 35.6891 0.764381 35.9789 1.55843C37.0304 4.44492 38.0928 7.33143 39.1443 10.2286C40.0564 12.7181 40.9685 15.1968 41.8591 17.6863C42.1167 18.4052 42.2132 19.1242 41.5587 19.6929C40.7754 20.3689 39.6487 19.9826 39.2087 18.8344C38.361 16.6132 37.567 14.3598 36.7515 12.1279C36.0133 10.1214 35.2751 8.11487 34.5468 6.10835C34.5046 5.99229 34.3942 5.91379 34.2719 5.89648C34.2654 5.89555 34.2588 5.89462 34.2522 5.89368C34.2516 5.89359 34.2509 5.89354 34.2503 5.89354Z" fill="url(#paint1_linear_34_4691)"/>
<path d="M18.7997 25.9809C18.188 25.938 17.7695 25.6697 17.4369 25.1976C14.8401 21.5278 12.2326 17.8687 9.62514 14.1989C9.08862 13.437 9.07789 12.6859 9.62514 11.924C12.2326 8.26496 14.8294 4.59516 17.4476 0.936082C18.0271 0.120569 18.8962 -0.0833304 19.5937 0.378078C20.2805 0.839487 20.3878 1.81597 19.7869 2.67441C17.5013 5.915 15.2157 9.1556 12.8872 12.3747C12.5116 12.8898 12.4902 13.201 12.8765 13.7375C15.1835 16.9244 17.4369 20.1435 19.7225 23.3519C20.1624 23.9636 20.3234 24.6074 20.0015 25.2941C19.7654 25.7985 19.2825 25.9487 18.8104 25.9809H18.7997Z" fill="url(#paint2_linear_34_4691)"/>
<path d="M2.98306 13.0614C2.98306 16.8063 2.98306 20.5512 2.98306 24.2961C2.98306 24.9936 2.80065 25.6052 2.09244 25.9271C1.513 26.1847 0.976473 26.0774 0.515065 25.6804C0.0214645 25.2511 0 24.6395 0 24.0279C0 19.682 0 15.347 0 11.0011C0 8.14683 0 5.30327 0 2.44897C0 2.24509 0 2.05195 0 1.84807C0.0321913 0.67845 0.600911 -0.00832179 1.52373 0.0131391C2.41435 0.0346 2.9616 0.689171 2.98306 1.80514C3.00452 2.59919 2.98306 3.39324 2.98306 4.18729C2.98306 7.13816 2.98306 10.089 2.98306 13.0399V13.0614Z" fill="url(#paint3_linear_34_4691)"/>
<path d="M108.984 0.0293527C108.982 0.0313359 108.983 0.0347232 108.986 0.0347232C111.269 0.0347232 113.541 0.0347232 115.824 0.0347232C116.296 0.0347232 116.747 0.0668948 117.187 0.249312C117.788 0.485382 118.035 1.00046 118.024 1.57991C118.013 2.12716 117.756 2.59929 117.187 2.8139C116.779 2.96413 116.361 3.02849 115.921 3.02849C111.189 3.02849 106.467 3.02849 101.735 3.02849C101.295 3.02849 100.877 2.97485 100.48 2.80316C99.9218 2.56709 99.6857 2.06276 99.6857 1.52624C99.6857 0.989715 99.9218 0.485382 100.48 0.249312C100.909 0.0668948 101.37 0.0239822 101.843 0.0239822C104.222 0.0239822 106.602 0.0239822 108.981 0.0239822C108.984 0.0239822 108.986 0.0273696 108.984 0.0293527Z" fill="url(#paint4_linear_34_4691)"/>
<path d="M58.4597 14.3437C58.4597 14.3467 58.4573 14.3491 58.4543 14.3491C56.1383 14.3491 53.8223 14.3491 51.5063 14.3491C51.2381 14.3491 50.9698 14.3598 50.7123 14.3276C49.8753 14.2096 49.3925 13.716 49.3281 12.8898C49.2744 12.1172 49.886 11.4948 50.7552 11.3875C51.0449 11.3553 51.3454 11.3661 51.6458 11.3661C56.1848 11.3661 60.7238 11.3661 65.252 11.3661C65.5203 11.3661 65.7885 11.3553 66.0461 11.3661C66.9903 11.4519 67.602 12.0528 67.5805 12.8683C67.5698 13.6838 66.9582 14.2633 66.0032 14.3384C65.7027 14.3598 65.4022 14.3384 65.1125 14.3384C62.8931 14.3384 60.6737 14.3384 58.465 14.3384C58.4621 14.3384 58.4597 14.3408 58.4597 14.3437Z" fill="url(#paint5_linear_34_4691)"/>
<path d="M108.758 14.3491C108.761 14.354 108.757 14.3598 108.752 14.3598C106.438 14.3598 104.124 14.3598 101.81 14.3598C101.542 14.3598 101.274 14.3706 101.016 14.3384C100.179 14.2203 99.6963 13.7268 99.632 12.9005C99.5783 12.1279 100.19 11.5056 101.059 11.3983C101.349 11.3661 101.649 11.3768 101.95 11.3768C106.489 11.3768 111.028 11.3768 115.556 11.3768C115.824 11.3768 116.092 11.366 116.35 11.3768C117.294 11.4626 117.906 12.0635 117.884 12.8791C117.874 13.7053 117.262 14.274 116.296 14.3384C115.996 14.3598 115.695 14.3384 115.406 14.3384C113.189 14.3384 110.971 14.3384 108.765 14.3384C108.759 14.3384 108.756 14.3442 108.758 14.3491Z" fill="url(#paint6_linear_34_4691)"/>
<path d="M58.4645 23.3037C58.4625 23.3057 58.4639 23.3091 58.4667 23.3091C60.7498 23.3091 63.0328 23.3091 65.3159 23.3091C65.5841 23.3091 65.8524 23.2983 66.1099 23.3198C67.0005 23.4163 67.58 23.9851 67.6014 24.7684C67.6229 25.5839 67.0113 26.1955 66.067 26.2814C65.8095 26.3028 65.5412 26.2814 65.2729 26.2814C60.734 26.2814 56.195 26.2814 51.6667 26.2814C51.4307 26.2814 51.2053 26.2921 50.9693 26.2814C49.9499 26.217 49.3168 25.6268 49.3382 24.7684C49.349 23.91 49.9928 23.352 51.0229 23.2983C51.2912 23.2876 51.5487 23.2983 51.817 23.2983C54.0356 23.2983 56.2543 23.2983 58.4622 23.2983C58.465 23.2983 58.4665 23.3017 58.4645 23.3037Z" fill="url(#paint7_linear_34_4691)"/>
<path d="M108.71 26.2974C108.703 26.301 108.695 26.3028 108.687 26.3028C106.341 26.3028 103.995 26.3028 101.649 26.3028C101.252 26.3028 100.855 26.3028 100.48 26.1204C99.8895 25.8521 99.632 25.3585 99.6535 24.7684C99.6642 24.2211 99.9217 23.749 100.469 23.5022C100.845 23.3305 101.231 23.3197 101.639 23.3197C106.403 23.3197 111.178 23.3197 115.942 23.3197C116.039 23.3197 116.146 23.3197 116.243 23.3197C117.273 23.3841 117.906 23.9528 117.917 24.8005C117.917 25.659 117.284 26.2706 116.264 26.2921C114.579 26.3243 112.884 26.2921 111.199 26.2921C110.377 26.2921 109.555 26.2921 108.733 26.2921C108.725 26.2921 108.717 26.2939 108.71 26.2974Z" fill="url(#paint8_linear_34_4691)"/>
<path d="M58.4595 3.01777C56.1739 3.01777 53.8883 3.01777 51.6027 3.01777C51.3667 3.01777 51.1413 3.0285 50.9053 3.01777C49.9502 2.94266 49.3386 2.37395 49.3279 1.54771C49.3172 0.732196 49.9288 0.120535 50.8731 0.0454223C51.3023 0.013231 51.7315 0.0454223 52.1607 0.0454223C56.4314 0.0454223 60.7129 0.0454223 64.9836 0.0454223C65.1875 0.0454223 65.3806 0.0454223 65.5845 0.0454223C66.8507 0.0668831 67.5696 0.592669 67.5804 1.51549C67.5911 2.4383 66.8721 3.00704 65.6167 3.01777C64.5866 3.0285 63.5672 3.01777 62.5371 3.01777C61.1743 3.01777 59.8223 3.01777 58.4595 3.01777Z" fill="url(#paint9_linear_34_4691)"/>
<path d="M126.265 1.64429C126.254 2.48126 125.567 3.21092 124.784 3.21092C123.968 3.21092 123.26 2.42759 123.292 1.55842C123.325 0.71072 124.033 0.0132379 124.827 0.0454292C125.621 0.0776205 126.276 0.807312 126.265 1.64429Z" fill="url(#paint10_linear_34_4691)"/>
<path d="M44.7296 24.5216C44.7325 24.5216 44.735 24.524 44.7351 24.5269C44.7536 25.3618 44.1002 26.1098 43.3185 26.1526C42.4923 26.1955 41.7626 25.4551 41.7626 24.5645C41.7626 23.7275 42.4386 22.9979 43.2219 22.9871C44.0036 22.9764 44.6997 23.6816 44.7241 24.5162C44.7241 24.5192 44.7266 24.5216 44.7296 24.5216Z" fill="url(#paint11_linear_34_4691)"/>
<path d="M92.3677 11.6236C92.3631 11.6236 92.3605 11.6184 92.3631 11.6146C93.8483 9.43831 93.7939 6.88815 93.0973 4.47711C92.3247 1.80524 89.7494 0.131303 87.6892 0.06692C83.7511 -0.0511148 79.813 0.0347077 75.8643 0.0454381C75.5423 0.0454381 75.199 0.0991061 74.8985 0.19568C74.2869 0.388828 74.0079 0.90388 73.9972 1.49405C73.9972 2.12715 74.2869 2.63149 74.9307 2.87829C75.317 3.02852 75.714 3.01779 76.111 3.01779C79.7165 3.01779 83.3326 3.02851 86.9381 3.00705C87.6355 3.00705 88.215 3.21094 88.7944 3.55431C90.7474 4.70247 91.1658 7.52455 90.0606 9.63845C89.4168 10.851 88.5906 11.5699 87.0346 11.4197C85.2963 11.248 83.5258 11.3768 81.7767 11.3768C79.7916 11.3768 77.8064 11.3768 75.8213 11.3768C74.2869 11.3768 73.7825 11.8704 73.7825 13.3834C73.7825 16.9244 73.7825 20.4762 73.7825 24.0172C73.7825 25.6912 74.3835 26.2921 76.0681 26.2921C79.416 26.2921 82.7532 26.2384 86.1011 26.3136C89.4061 26.3887 93.0866 23.8778 93.4085 20.047C93.5802 18.0189 93.6553 15.9372 92.4106 14.2204C91.683 13.2253 91.6702 12.6783 92.3723 11.6326C92.3749 11.6288 92.3723 11.6236 92.3677 11.6236ZM90.0928 21.0556C90.0977 21.0556 90.1008 21.0609 90.0985 21.0652C89.2606 22.6464 87.7715 23.2983 86.0045 23.309C83.1931 23.3305 80.3818 23.2983 77.5704 23.3305C76.948 23.3305 76.712 23.2017 76.7227 22.5257C76.7656 20.0792 76.7656 17.6326 76.7227 15.1754C76.7227 14.5208 76.9051 14.3277 77.5489 14.3491C79.1048 14.392 80.6608 14.3598 82.5386 14.3598C84.0194 14.274 85.8435 14.4028 87.657 14.2955C88.7193 14.2311 89.4382 15.1003 89.9426 15.9587C90.9172 17.608 90.9725 19.375 90.0872 21.0461C90.0849 21.0504 90.088 21.0556 90.0928 21.0556Z" fill="url(#paint12_linear_34_4691)"/>
<path d="M0.0535983 35.134C0.0535983 33.848 1.0961 32.8055 2.3821 32.8055C4.31358 32.8055 5.64415 34.1468 5.64415 36.2607C5.64415 38.3746 4.33504 39.8339 2.37137 39.8339C1.0913 39.8339 0.0535983 38.7962 0.0535983 37.5161V35.134ZM0.59012 37.6342C0.59012 38.5705 1.34918 39.3296 2.28553 39.3296C4.1419 39.3296 5.05398 38.0205 5.05398 36.2929C5.05398 34.7477 4.22774 33.3098 2.28553 33.3098C1.34918 33.3098 0.59012 34.0689 0.59012 35.0052V37.6342Z" fill="url(#paint13_linear_34_4691)"/>
<path d="M18.3383 36.3787H16.2298C15.4149 36.3787 14.7544 37.0393 14.7544 37.8541C14.7544 38.669 15.4149 39.3296 16.2298 39.3296H18.383C18.5392 39.3296 18.6578 39.4701 18.6316 39.6241C18.6109 39.7453 18.5059 39.8339 18.383 39.8339H16.5869C15.2726 39.8339 14.2071 38.7684 14.2071 37.4541V34.9569C14.2071 33.7687 15.1703 32.8055 16.3586 32.8055H18.2578C18.3971 32.8055 18.51 32.9184 18.51 33.0576C18.51 33.1969 18.3971 33.3098 18.2578 33.3098H16.0259C15.3177 33.3098 14.7436 33.8839 14.7436 34.5921C14.7436 35.3003 15.3177 35.8744 16.0259 35.8744H18.0754C18.2147 35.8744 18.3276 35.9873 18.3276 36.1265V36.368C18.3276 36.3739 18.3324 36.3787 18.3383 36.3787Z" fill="url(#paint14_linear_34_4691)"/>
<path d="M29.1221 39.8339C29.1273 39.8339 29.1309 39.8287 29.1291 39.8239L26.6612 33.1716C26.5954 32.9942 26.7266 32.8055 26.9159 32.8055C27.0295 32.8055 27.1311 32.8761 27.1706 32.9825L28.4676 36.4753C28.8623 37.5315 29.2995 38.7043 29.4522 39.2978C29.4538 39.304 29.4593 39.3081 29.4657 39.3081C29.4719 39.3081 29.4773 39.3043 29.4791 39.2983C29.6324 38.7671 30.1117 37.542 30.4956 36.5182L31.847 32.9759C31.8862 32.8733 31.9846 32.8055 32.0945 32.8055C32.2805 32.8055 32.4086 32.9922 32.3416 33.1658L29.998 39.2333C29.8582 39.5953 29.5101 39.8339 29.1221 39.8339Z" fill="url(#paint15_linear_34_4691)"/>
<path d="M44.8207 36.3787H42.7122C41.8973 36.3787 41.2367 37.0393 41.2367 37.8541C41.2367 38.669 41.8973 39.3296 42.7122 39.3296H44.8654C45.0215 39.3296 45.1402 39.4701 45.114 39.6241C45.0933 39.7453 44.9883 39.8339 44.8654 39.8339H43.0693C41.755 39.8339 40.6895 38.7684 40.6895 37.4541V34.9569C40.6895 33.7687 41.6527 32.8055 42.8409 32.8055H44.7402C44.8795 32.8055 44.9924 32.9184 44.9924 33.0576C44.9924 33.1969 44.8795 33.3098 44.7402 33.3098H42.5083C41.8001 33.3098 41.226 33.8839 41.226 34.5921C41.226 35.3003 41.8001 35.8744 42.5083 35.8744H44.5578C44.6971 35.8744 44.81 35.9873 44.81 36.1265V36.368C44.81 36.3739 44.8148 36.3787 44.8207 36.3787Z" fill="url(#paint16_linear_34_4691)"/>
<path d="M53.577 33.0737C53.577 32.9256 53.6971 32.8055 53.8452 32.8055C53.9934 32.8055 54.1135 32.9256 54.1135 33.0737V37.6202C54.1135 38.5643 54.8788 39.3296 55.8229 39.3296H57.5856C57.7439 39.3296 57.863 39.4737 57.8333 39.6292C57.8105 39.748 57.7066 39.8339 57.5856 39.8339H55.8856C54.6106 39.8339 53.577 38.8003 53.577 37.5253V33.0737Z" fill="url(#paint17_linear_34_4691)"/>
<path d="M71.6898 36.2714C71.6898 38.1921 70.6704 39.9305 68.5029 39.9305C66.5285 39.9305 65.3696 38.3316 65.3696 36.3143C65.3696 34.297 66.4855 32.6982 68.5672 32.6982C70.4987 32.6982 71.6898 34.2111 71.6898 36.2607V36.2714ZM65.949 36.2928C65.949 37.9131 66.8396 39.4369 68.5243 39.4369C70.3378 39.4369 71.0996 37.9561 71.0996 36.2821C71.0996 34.6082 70.2412 33.2132 68.5458 33.2132C66.7431 33.2132 65.949 34.7047 65.949 36.2928Z" fill="url(#paint18_linear_34_4691)"/>
<path d="M80.2634 32.7948C80.2634 32.8007 80.2682 32.8055 80.2741 32.8055H82.7744C84.062 32.8055 84.9419 33.5137 84.9419 34.7584C84.9419 36.0032 84.0727 36.765 82.6992 36.765H82.3398C81.4953 36.765 80.8107 37.4496 80.8107 38.2941V39.5496C80.8107 39.7007 80.6882 39.8232 80.5371 39.8232C80.3859 39.8232 80.2634 39.7007 80.2634 39.5496V32.7948ZM80.8107 36.2714H82.7529C83.8903 36.2714 84.3625 35.6705 84.3625 34.7906C84.3625 33.8463 83.7401 33.3098 82.7958 33.3098H82.3022C81.4844 33.3098 80.8214 33.9728 80.8214 34.7906V36.2607C80.8214 36.2666 80.8166 36.2714 80.8107 36.2714Z" fill="url(#paint19_linear_34_4691)"/>
<path d="M99.525 36.6094C99.5184 36.6061 99.5142 36.5994 99.5142 36.592C99.5142 35.2349 99.5144 33.9318 99.556 33.2317C99.5566 33.2215 99.5485 33.2132 99.5383 33.2132C99.5304 33.2132 99.5237 33.2175 99.5214 33.2251C99.2447 34.1509 97.9178 37.3829 97.028 39.5866C96.9675 39.7363 96.8225 39.8339 96.6611 39.8339C96.4985 39.8339 96.353 39.7359 96.2938 39.5845C95.585 37.774 94.2377 34.2342 93.9261 33.2103C93.9245 33.2053 93.9201 33.2025 93.9149 33.2025C93.908 33.2025 93.9026 33.208 93.903 33.2148C93.9561 34.0238 93.9773 35.6445 93.9773 36.8509V39.5764C93.9773 39.7245 93.8572 39.8446 93.7091 39.8446C93.5609 39.8446 93.4408 39.7245 93.4408 39.5764V33.3025C93.4408 33.0339 93.6585 32.8162 93.9271 32.8162C94.1259 32.8162 94.3046 32.9369 94.3782 33.1216C95.3176 35.4789 96.4362 38.3839 96.6891 39.1592C96.6911 39.1653 96.6964 39.1686 96.7028 39.1686C96.7092 39.1686 96.7145 39.1658 96.7164 39.1597C96.8831 38.6369 98.1721 35.4254 99.1432 33.1114C99.2185 32.9321 99.3939 32.8162 99.5884 32.8162C99.8556 32.8162 100.072 33.0328 100.072 33.3V39.5764C100.072 39.7245 99.9521 39.8446 99.804 39.8446C99.6558 39.8446 99.5357 39.7245 99.5357 39.5764V36.6268C99.5357 36.6194 99.5315 36.6127 99.525 36.6094Z" fill="url(#paint20_linear_34_4691)"/>
<path d="M113.27 36.3787H111.162C110.347 36.3787 109.686 37.0393 109.686 37.8541C109.686 38.669 110.347 39.3296 111.162 39.3296H113.315C113.471 39.3296 113.59 39.4701 113.564 39.6241C113.543 39.7453 113.438 39.8339 113.315 39.8339H111.519C110.205 39.8339 109.139 38.7684 109.139 37.4541V34.9569C109.139 33.7687 110.102 32.8055 111.291 32.8055H113.19C113.329 32.8055 113.442 32.9184 113.442 33.0576C113.442 33.1969 113.329 33.3098 113.19 33.3098H110.958C110.25 33.3098 109.676 33.8839 109.676 34.5921C109.676 35.3003 110.25 35.8744 110.958 35.8744H113.007C113.147 35.8744 113.26 35.9873 113.26 36.1265V36.368C113.26 36.3739 113.264 36.3787 113.27 36.3787Z" fill="url(#paint21_linear_34_4691)"/>
<path d="M122.037 39.8339C122.031 39.8339 122.027 39.8291 122.027 39.8232V33.3271C122.027 33.039 122.26 32.8055 122.548 32.8055C122.725 32.8055 122.889 32.8934 122.985 33.0415C123.564 33.9322 124.44 35.2765 125.227 36.492C125.664 37.1663 126.888 36.7958 126.888 35.9924V33.0791C126.888 32.928 127.01 32.8055 127.161 32.8055C127.312 32.8055 127.435 32.928 127.435 33.0791V39.3557C127.435 39.6198 127.221 39.8339 126.957 39.8339C126.793 39.8339 126.642 39.7521 126.554 39.6144C125.989 38.7291 125.093 37.3269 124.282 36.0613C123.809 35.3216 122.585 35.6935 122.585 36.5718V39.2867C122.585 39.5889 122.34 39.8339 122.037 39.8339Z" fill="url(#paint22_linear_34_4691)"/>
<path d="M137.94 34.4901C137.94 33.8382 137.411 33.3098 136.76 33.3098H135.831C135.692 33.3098 135.579 33.1969 135.579 33.0576C135.579 32.9184 135.692 32.8055 135.831 32.8055H140.606C140.746 32.8055 140.859 32.9184 140.859 33.0576C140.859 33.1969 140.746 33.3098 140.606 33.3098H139.673C139.018 33.3098 138.487 33.8406 138.487 34.4955V39.5603C138.487 39.7114 138.365 39.8339 138.214 39.8339C138.062 39.8339 137.94 39.7114 137.94 39.5603V34.4901Z" fill="url(#paint23_linear_34_4691)"/>
<defs>
<linearGradient id="paint0_linear_34_4691" x1="3.63163e-07" y1="-4" x2="149.5" y2="40" gradientUnits="userSpaceOnUse">
<stop stop-color="#A6D120"/>
<stop offset="0.01" stop-color="#A4D020"/>
<stop offset="0.69" stop-color="#4D9B42"/>
<stop offset="1" stop-color="#2B8750"/>
</linearGradient>
<linearGradient id="paint1_linear_34_4691" x1="3.63163e-07" y1="-4" x2="149.5" y2="40" gradientUnits="userSpaceOnUse">
<stop stop-color="#A6D120"/>
<stop offset="0.01" stop-color="#A4D020"/>
<stop offset="0.69" stop-color="#4D9B42"/>
<stop offset="1" stop-color="#2B8750"/>
</linearGradient>
<linearGradient id="paint2_linear_34_4691" x1="3.63163e-07" y1="-4" x2="149.5" y2="40" gradientUnits="userSpaceOnUse">
<stop stop-color="#A6D120"/>
<stop offset="0.01" stop-color="#A4D020"/>
<stop offset="0.69" stop-color="#4D9B42"/>
<stop offset="1" stop-color="#2B8750"/>
</linearGradient>
<linearGradient id="paint3_linear_34_4691" x1="3.63163e-07" y1="-4" x2="149.5" y2="40" gradientUnits="userSpaceOnUse">
<stop stop-color="#A6D120"/>
<stop offset="0.01" stop-color="#A4D020"/>
<stop offset="0.69" stop-color="#4D9B42"/>
<stop offset="1" stop-color="#2B8750"/>
</linearGradient>
<linearGradient id="paint4_linear_34_4691" x1="3.63163e-07" y1="-4" x2="149.5" y2="40" gradientUnits="userSpaceOnUse">
<stop stop-color="#A6D120"/>
<stop offset="0.01" stop-color="#A4D020"/>
<stop offset="0.69" stop-color="#4D9B42"/>
<stop offset="1" stop-color="#2B8750"/>
</linearGradient>
<linearGradient id="paint5_linear_34_4691" x1="3.63163e-07" y1="-4" x2="149.5" y2="40" gradientUnits="userSpaceOnUse">
<stop stop-color="#A6D120"/>
<stop offset="0.01" stop-color="#A4D020"/>
<stop offset="0.69" stop-color="#4D9B42"/>
<stop offset="1" stop-color="#2B8750"/>
</linearGradient>
<linearGradient id="paint6_linear_34_4691" x1="3.63163e-07" y1="-4" x2="149.5" y2="40" gradientUnits="userSpaceOnUse">
<stop stop-color="#A6D120"/>
<stop offset="0.01" stop-color="#A4D020"/>
<stop offset="0.69" stop-color="#4D9B42"/>
<stop offset="1" stop-color="#2B8750"/>
</linearGradient>
<linearGradient id="paint7_linear_34_4691" x1="3.63163e-07" y1="-4" x2="149.5" y2="40" gradientUnits="userSpaceOnUse">
<stop stop-color="#A6D120"/>
<stop offset="0.01" stop-color="#A4D020"/>
<stop offset="0.69" stop-color="#4D9B42"/>
<stop offset="1" stop-color="#2B8750"/>
</linearGradient>
<linearGradient id="paint8_linear_34_4691" x1="3.63163e-07" y1="-4" x2="149.5" y2="40" gradientUnits="userSpaceOnUse">
<stop stop-color="#A6D120"/>
<stop offset="0.01" stop-color="#A4D020"/>
<stop offset="0.69" stop-color="#4D9B42"/>
<stop offset="1" stop-color="#2B8750"/>
</linearGradient>
<linearGradient id="paint9_linear_34_4691" x1="3.63163e-07" y1="-4" x2="149.5" y2="40" gradientUnits="userSpaceOnUse">
<stop stop-color="#A6D120"/>
<stop offset="0.01" stop-color="#A4D020"/>
<stop offset="0.69" stop-color="#4D9B42"/>
<stop offset="1" stop-color="#2B8750"/>
</linearGradient>
<linearGradient id="paint10_linear_34_4691" x1="3.63163e-07" y1="-4" x2="149.5" y2="40" gradientUnits="userSpaceOnUse">
<stop stop-color="#A6D120"/>
<stop offset="0.01" stop-color="#A4D020"/>
<stop offset="0.69" stop-color="#4D9B42"/>
<stop offset="1" stop-color="#2B8750"/>
</linearGradient>
<linearGradient id="paint11_linear_34_4691" x1="3.63163e-07" y1="-4" x2="149.5" y2="40" gradientUnits="userSpaceOnUse">
<stop stop-color="#A6D120"/>
<stop offset="0.01" stop-color="#A4D020"/>
<stop offset="0.69" stop-color="#4D9B42"/>
<stop offset="1" stop-color="#2B8750"/>
</linearGradient>
<linearGradient id="paint12_linear_34_4691" x1="3.63163e-07" y1="-4" x2="149.5" y2="40" gradientUnits="userSpaceOnUse">
<stop stop-color="#A6D120"/>
<stop offset="0.01" stop-color="#A4D020"/>
<stop offset="0.69" stop-color="#4D9B42"/>
<stop offset="1" stop-color="#2B8750"/>
</linearGradient>
<linearGradient id="paint13_linear_34_4691" x1="3.63163e-07" y1="-4" x2="149.5" y2="40" gradientUnits="userSpaceOnUse">
<stop stop-color="#A6D120"/>
<stop offset="0.01" stop-color="#A4D020"/>
<stop offset="0.69" stop-color="#4D9B42"/>
<stop offset="1" stop-color="#2B8750"/>
</linearGradient>
<linearGradient id="paint14_linear_34_4691" x1="3.63163e-07" y1="-4" x2="149.5" y2="40" gradientUnits="userSpaceOnUse">
<stop stop-color="#A6D120"/>
<stop offset="0.01" stop-color="#A4D020"/>
<stop offset="0.69" stop-color="#4D9B42"/>
<stop offset="1" stop-color="#2B8750"/>
</linearGradient>
<linearGradient id="paint15_linear_34_4691" x1="3.63163e-07" y1="-4" x2="149.5" y2="40" gradientUnits="userSpaceOnUse">
<stop stop-color="#A6D120"/>
<stop offset="0.01" stop-color="#A4D020"/>
<stop offset="0.69" stop-color="#4D9B42"/>
<stop offset="1" stop-color="#2B8750"/>
</linearGradient>
<linearGradient id="paint16_linear_34_4691" x1="3.63163e-07" y1="-4" x2="149.5" y2="40" gradientUnits="userSpaceOnUse">
<stop stop-color="#A6D120"/>
<stop offset="0.01" stop-color="#A4D020"/>
<stop offset="0.69" stop-color="#4D9B42"/>
<stop offset="1" stop-color="#2B8750"/>
</linearGradient>
<linearGradient id="paint17_linear_34_4691" x1="3.63163e-07" y1="-4" x2="149.5" y2="40" gradientUnits="userSpaceOnUse">
<stop stop-color="#A6D120"/>
<stop offset="0.01" stop-color="#A4D020"/>
<stop offset="0.69" stop-color="#4D9B42"/>
<stop offset="1" stop-color="#2B8750"/>
</linearGradient>
<linearGradient id="paint18_linear_34_4691" x1="3.63163e-07" y1="-4" x2="149.5" y2="40" gradientUnits="userSpaceOnUse">
<stop stop-color="#A6D120"/>
<stop offset="0.01" stop-color="#A4D020"/>
<stop offset="0.69" stop-color="#4D9B42"/>
<stop offset="1" stop-color="#2B8750"/>
</linearGradient>
<linearGradient id="paint19_linear_34_4691" x1="3.63163e-07" y1="-4" x2="149.5" y2="40" gradientUnits="userSpaceOnUse">
<stop stop-color="#A6D120"/>
<stop offset="0.01" stop-color="#A4D020"/>
<stop offset="0.69" stop-color="#4D9B42"/>
<stop offset="1" stop-color="#2B8750"/>
</linearGradient>
<linearGradient id="paint20_linear_34_4691" x1="3.63163e-07" y1="-4" x2="149.5" y2="40" gradientUnits="userSpaceOnUse">
<stop stop-color="#A6D120"/>
<stop offset="0.01" stop-color="#A4D020"/>
<stop offset="0.69" stop-color="#4D9B42"/>
<stop offset="1" stop-color="#2B8750"/>
</linearGradient>
<linearGradient id="paint21_linear_34_4691" x1="3.63163e-07" y1="-4" x2="149.5" y2="40" gradientUnits="userSpaceOnUse">
<stop stop-color="#A6D120"/>
<stop offset="0.01" stop-color="#A4D020"/>
<stop offset="0.69" stop-color="#4D9B42"/>
<stop offset="1" stop-color="#2B8750"/>
</linearGradient>
<linearGradient id="paint22_linear_34_4691" x1="3.63163e-07" y1="-4" x2="149.5" y2="40" gradientUnits="userSpaceOnUse">
<stop stop-color="#A6D120"/>
<stop offset="0.01" stop-color="#A4D020"/>
<stop offset="0.69" stop-color="#4D9B42"/>
<stop offset="1" stop-color="#2B8750"/>
</linearGradient>
<linearGradient id="paint23_linear_34_4691" x1="3.63163e-07" y1="-4" x2="149.5" y2="40" gradientUnits="userSpaceOnUse">
<stop stop-color="#A6D120"/>
<stop offset="0.01" stop-color="#A4D020"/>
<stop offset="0.69" stop-color="#4D9B42"/>
<stop offset="1" stop-color="#2B8750"/>
</linearGradient>
</defs>
</svg>
