<svg width="114" height="36" viewBox="0 0 114 36" fill="none" xmlns="http://www.w3.org/2000/svg">
<path d="M68.6913 25.7923C67.7878 25.3968 66.6181 25.0519 65.1804 24.7576C64.3725 24.5814 63.8008 24.4052 63.4634 24.229C63.126 24.0528 62.9573 23.8485 62.9573 23.6124C62.9573 23.3631 63.0604 23.1906 63.2648 23.095C63.4709 22.9994 63.7708 22.9525 64.1664 22.9525C64.8993 22.9525 65.6378 23.0913 66.3782 23.3706C66.59 23.4512 66.8056 23.5392 67.0249 23.6367C68.0315 24.0847 69.2124 23.7192 69.7597 22.7614L69.8084 22.677C70.4776 21.5074 69.9021 20.0228 68.6219 19.5992C67.3417 19.1755 66.0071 18.99 64.4531 18.99C62.3688 18.99 60.6855 19.4192 59.4015 20.2777C58.1175 21.1362 57.4765 22.379 57.4765 24.0079C57.4765 25.4905 58.0163 26.6152 59.0941 27.3856C60.1719 28.156 61.7165 28.7539 63.7277 29.1794C64.5787 29.3556 65.1692 29.5168 65.4991 29.6631C65.829 29.8093 65.9939 30.0304 65.9939 30.3229C65.9939 30.5722 65.874 30.7559 65.6303 30.8739C65.3885 30.992 65.083 31.0501 64.7174 31.0501C63.8664 31.0501 62.9592 30.8777 61.9995 30.5328C61.6546 30.4091 61.3172 30.2722 60.9873 30.1242C59.9826 29.6706 58.7998 30.0604 58.26 31.0202L58.2 31.127C57.5646 32.261 58.0819 33.71 59.3022 34.1561C59.6021 34.2648 59.9226 34.3679 60.2581 34.4616C61.5703 34.829 62.9405 35.0127 64.3632 35.0127C65.7859 35.0127 66.9462 34.8065 68.0165 34.396C69.0868 33.9855 69.9284 33.3838 70.5376 32.5909C71.1468 31.798 71.4504 30.8514 71.4504 29.7512C71.4504 28.7821 71.2161 27.9798 70.7457 27.3406C70.2752 26.7014 69.591 26.186 68.6875 25.7886L68.6913 25.7923ZM29.5791 21.0819C28.3383 22.2703 27.7197 23.9947 27.7197 26.2534V31.9536C27.7197 33.4738 28.9512 34.7053 30.4714 34.7053C31.9915 34.7053 33.2231 33.4738 33.2231 31.9536V29.708H37.2625C38.374 29.708 39.2756 28.8064 39.2756 27.6949C39.2756 26.5833 38.374 25.6817 37.2625 25.6817H33.2231C33.2812 24.9188 33.4761 24.379 33.806 24.0641C34.1359 23.7492 34.6458 23.5917 35.3356 23.5917H37.3056C38.4171 23.5917 39.3187 22.6901 39.3187 21.5786V21.3143C39.3187 20.2027 38.4171 19.3011 37.3056 19.3011H34.9607C32.612 19.3011 30.8181 19.8953 29.5791 21.0837V21.0819ZM58.6986 5.89887C58.9554 6.20628 59.0829 6.66177 59.0829 7.26346V13.0199C59.0829 14.5213 60.2994 15.7378 61.8008 15.7378H61.8664C63.3678 15.7378 64.5844 14.5213 64.5844 13.0199V7.08727C64.5844 5.66457 64.3126 4.41619 63.7708 3.34588C63.2273 2.27557 62.4944 1.45269 61.5703 0.880988C60.6462 0.309283 59.6339 0.0224933 58.5337 0.0224933C56.4212 0.0224933 54.6967 0.785391 53.3621 2.31119C52.1287 0.785391 50.5298 0.0224933 48.5635 0.0224933C47.4482 0.0224933 46.4323 0.309283 45.5157 0.880988C44.5991 1.45269 43.8718 2.27182 43.3375 3.33463C42.8015 4.39932 42.5334 5.64957 42.5334 7.08727V13.0199C42.5334 14.5213 43.7499 15.7378 45.2514 15.7378H45.317C46.8184 15.7378 48.0349 14.5213 48.0349 13.0199V7.26346C48.0349 6.66177 48.1586 6.20628 48.4098 5.89887C48.6591 5.59146 49.004 5.43588 49.4445 5.43588C49.855 5.43588 50.1849 5.59334 50.4342 5.90824C50.6835 6.22315 50.8091 6.68239 50.8091 7.28408V13.018C50.8091 14.5194 52.0256 15.7359 53.527 15.7359H53.5926C55.0941 15.7359 56.3106 14.5194 56.3106 13.018V7.26159C56.3106 6.6449 56.4324 6.18753 56.6742 5.88575C56.916 5.58584 57.2572 5.43401 57.6977 5.43401C58.1082 5.43401 58.4418 5.58771 58.6986 5.897V5.89887ZM50.7416 27.9048C50.7416 28.7277 50.5504 29.3575 50.1699 29.798C49.7875 30.2385 49.2458 30.4578 48.541 30.4578C47.8362 30.4578 47.3226 30.2385 46.9571 29.798C46.5897 29.3575 46.406 28.7277 46.406 27.9048V22.0172C46.406 20.5158 45.1895 19.2993 43.6881 19.2993H43.6225C42.121 19.2993 40.9045 20.5158 40.9045 22.0172V27.9704C40.9045 29.4081 41.2157 30.6565 41.8399 31.7118C42.4641 32.769 43.3469 33.5825 44.4922 34.1542C45.6375 34.7259 46.9871 35.0127 48.5429 35.0127C50.0987 35.0127 51.452 34.7259 52.6029 34.1542C53.7538 33.5825 54.6386 32.7671 55.2553 31.7118C55.8719 30.6546 56.1794 29.4081 56.1794 27.9704V22.0172C56.1794 20.5158 54.9628 19.2993 53.4614 19.2993C51.96 19.2993 50.7435 20.5158 50.7435 22.0172V27.9048H50.7416ZM40.6177 8.37501C40.1472 7.73582 39.4631 7.22035 38.5596 6.82297C37.658 6.42746 36.4865 6.08257 35.0488 5.78828C34.2409 5.61208 33.6692 5.43588 33.3318 5.25969C32.9944 5.08349 32.8257 4.87917 32.8257 4.64299C32.8257 4.39369 32.9288 4.22124 33.1331 4.12565C33.3393 4.03005 33.6392 3.98319 34.0347 3.98319C34.7676 3.98319 35.5061 4.1219 36.2465 4.40119C36.4583 4.48179 36.6739 4.56989 36.8932 4.66736C37.8998 5.11535 39.0807 4.74984 39.628 3.792L39.6768 3.70765C40.3459 2.538 39.7705 1.05344 38.4902 0.629813C37.21 0.206189 35.8773 0.0224933 34.3234 0.0224933C32.239 0.0224933 30.5557 0.451741 29.2717 1.31024C27.9877 2.16873 27.3467 3.41149 27.3467 5.04038C27.3467 6.52306 27.8865 7.64773 28.9643 8.41812C30.0421 9.18852 31.5867 9.78646 33.5979 10.212C34.4489 10.3882 35.0394 10.5494 35.3693 10.6956C35.6992 10.8418 35.8641 11.063 35.8641 11.3554C35.8641 11.6047 35.7423 11.7884 35.5005 11.9065C35.2587 12.0245 34.9532 12.0827 34.5877 12.0827C33.7367 12.0827 32.8294 11.9102 31.8697 11.5653C31.5248 11.4416 31.1874 11.3048 30.8575 11.1567C29.8528 10.7031 28.67 11.093 28.1302 12.0527L28.0702 12.1595C27.4348 13.2935 27.9503 14.7425 29.1724 15.1886C29.4723 15.2973 29.7928 15.4004 30.1284 15.4941C31.4405 15.8615 32.8107 16.0452 34.2334 16.0452C35.6561 16.0452 36.8164 15.839 37.8867 15.4285C38.957 15.018 39.7986 14.4163 40.4059 13.6234C41.0151 12.8306 41.3188 11.884 41.3188 10.7837C41.3188 9.81458 41.0845 9.01232 40.614 8.37313L40.6177 8.37501ZM105.009 15.7378H105.998C107.245 15.7378 108.255 14.7275 108.255 13.481V4.84169H110.444C111.691 4.84169 112.701 3.83136 112.701 2.58486C112.701 1.33835 111.691 0.328027 110.444 0.328027H100.606C99.359 0.328027 98.3487 1.33835 98.3487 2.58486C98.3487 3.83136 99.359 4.84169 100.606 4.84169H102.752V13.481C102.752 14.7275 103.762 15.7378 105.009 15.7378ZM78.9051 15.7378C80.4065 15.7378 81.623 14.5213 81.623 13.0199V7.06665C81.623 5.68706 81.2969 4.46305 80.6427 3.39087C79.9904 2.32056 79.0794 1.48643 77.9135 0.892235C76.7476 0.298036 75.4149 0 73.9191 0C72.4233 0 71.0905 0.296162 69.9246 0.892235C68.7587 1.48643 67.8515 2.31869 67.2067 3.39087C66.56 4.46305 66.2376 5.68706 66.2376 7.06665V13.0199C66.2376 14.5213 67.4541 15.7378 68.9556 15.7378H69.0212C70.5226 15.7378 71.7391 14.5213 71.7391 13.0199V12.9861H76.1853V13.0199C76.1853 14.5213 77.4018 15.7378 78.9032 15.7378H78.9051ZM71.741 8.49685V7.06665C71.741 6.31875 71.9415 5.71705 72.3464 5.26156C72.7494 4.80607 73.2743 4.57926 73.921 4.57926C74.5676 4.57926 75.1243 4.80607 75.5498 5.26156C75.9753 5.71705 76.189 6.31875 76.189 7.06665V8.49685H71.7429H71.741ZM96.7873 8.9261C97.2128 8.11259 97.4246 7.14725 97.4246 6.03196C97.4246 4.97477 97.1415 3.98881 96.5773 3.07221C96.0113 2.15561 95.1903 1.41708 94.1124 0.860369C93.0346 0.30366 91.775 0.0243678 90.3373 0.0243678C85.6268 0.0243678 83.2725 2.45365 83.2725 7.31033V13.0218C83.2725 14.5232 84.4891 15.7397 85.9905 15.7397H86.0561C87.5575 15.7397 88.774 14.5232 88.774 13.0218V11.8671H89.8087L91.7806 14.7125C92.2268 15.3573 92.9615 15.7416 93.7451 15.7416C95.6814 15.7416 96.8154 13.5597 95.702 11.9758L94.9147 10.8549C95.7357 10.3863 96.3599 9.74335 96.7854 8.92984L96.7873 8.9261ZM91.7806 7.3853C91.4357 7.6421 90.9615 7.76956 90.3617 7.76956H88.7778V6.88858C88.7778 6.14067 88.9315 5.55772 89.2408 5.13785C89.5482 4.71985 89.9737 4.50991 90.5173 4.50991C91.0609 4.50991 91.5107 4.68236 91.8275 5.02726C92.1424 5.37215 92.3017 5.7864 92.3017 6.27001C92.3017 6.75362 92.1293 7.12476 91.7844 7.38156L91.7806 7.3853ZM113.02 22.3696C112.368 21.3049 111.457 20.4764 110.291 19.8822C109.125 19.288 107.792 18.99 106.296 18.99C104.801 18.99 103.468 19.2861 102.302 19.8822C101.136 20.4764 100.229 21.3049 99.5839 22.3696C98.9373 23.4343 98.6149 24.6545 98.6149 26.0341V31.9874C98.6149 33.4888 99.8314 34.7053 101.333 34.7053H101.398C102.9 34.7053 104.116 33.4888 104.116 31.9874V26.0341C104.116 25.3012 104.317 24.707 104.722 24.2515C105.125 23.796 105.65 23.5692 106.296 23.5692C106.943 23.5692 107.5 23.796 107.925 24.2515C108.351 24.707 108.564 25.3012 108.564 26.0341V31.9874C108.564 33.4888 109.781 34.7053 111.282 34.7053C112.784 34.7053 114 33.4888 114 31.9874V26.0341C114 24.6545 113.674 23.4343 113.02 22.3696ZM93.0028 20.0153C91.6963 19.333 90.2211 18.9919 88.5791 18.9919C86.9371 18.9919 85.46 19.3367 84.1554 20.0265C82.8489 20.7163 81.8255 21.6704 81.0851 22.8869C80.3447 24.1053 79.9735 25.4849 79.9735 27.0257C79.9735 28.5665 80.3447 29.9236 81.0851 31.142C81.8255 32.3604 82.8452 33.3107 84.1442 33.993C85.4432 34.6753 86.9146 35.0165 88.5566 35.0165C90.1986 35.0165 91.6738 34.6716 92.9803 33.9818C94.2868 33.292 95.3102 32.3379 96.0506 31.1214C96.791 29.903 97.1622 28.5234 97.1622 26.9826C97.1622 25.4418 96.7948 24.0847 96.0619 22.8663C95.3271 21.6479 94.3074 20.6976 93.0028 20.0153ZM90.7253 29.4569C90.1611 30.096 89.4451 30.4147 88.5791 30.4147C87.7131 30.4147 86.9952 30.0923 86.4216 29.4456C85.8499 28.8008 85.5631 27.9854 85.5631 27.0032C85.5631 26.021 85.8499 25.1831 86.4216 24.5383C86.9933 23.8935 87.7131 23.5692 88.5791 23.5692C89.4451 23.5692 90.1592 23.8954 90.7253 24.5477C91.2895 25.2 91.5726 26.0266 91.5726 27.0238C91.5726 28.021 91.2895 28.8177 90.7253 29.4569ZM75.593 34.7072C77.1131 34.7072 78.3446 33.4757 78.3446 31.9555V22.0509C78.3446 20.5308 77.1131 19.2993 75.593 19.2993C74.0728 19.2993 72.8413 20.5308 72.8413 22.0509V31.9555C72.8413 33.4757 74.0728 34.7072 75.593 34.7072Z" fill="url(#paint0_linear_34_4705)"/>
<path d="M0.389648 6.3169C0.389648 9.28789 1.1413 11.5597 2.64648 13.1286C4.15165 14.6975 6.33351 15.4829 9.1939 15.4829H16.4105C18.3337 15.4829 19.8932 13.9234 19.8932 12.0002C19.8932 10.077 18.3337 8.5175 16.4105 8.5175H8.47037C7.50503 8.44439 6.82274 8.19697 6.42348 7.77896C6.02422 7.36096 5.82366 6.71616 5.82366 5.84267V3.34966C5.82366 1.94195 4.68212 0.800415 3.27442 0.800415H2.94076C1.53306 0.800415 0.391523 1.94195 0.391523 3.34966V6.3169H0.389648Z" fill="url(#paint1_linear_34_4705)"/>
<path d="M8.46873 8.51745C8.46873 8.51745 8.68054 11.2073 6.53056 13.3779C3.91759 16.0208 0 21.0987 0 25.8748C0 28.5121 0.543588 30.6434 1.63076 32.2685C2.71794 33.8937 4.2906 34.7072 6.35249 34.7072C8.2288 34.7072 9.65338 34.0249 10.63 32.6603C11.6047 31.2957 12.3619 29.3406 12.8999 26.7951C13.123 25.7173 13.3273 24.9694 13.5129 24.5514C13.6984 24.1334 13.9777 23.9254 14.3489 23.9254C14.6656 23.9254 14.8962 24.0791 15.0461 24.3846C15.1942 24.6901 15.2692 25.0763 15.2692 25.5411C15.2692 26.6189 15.0518 27.7661 14.615 28.9826C14.4669 29.3931 14.3057 29.798 14.1295 30.1916C13.5447 31.5037 14.0396 33.0445 15.2936 33.7474C16.7819 34.5816 18.6732 33.8862 19.243 32.2779C19.3667 31.9311 19.4811 31.5656 19.5879 31.1832C20.0528 29.5206 20.2852 27.7886 20.2852 25.9873C20.2852 24.1859 20.0247 22.7182 19.5054 21.363C18.9862 20.0078 18.2233 18.9431 17.2205 18.1727C16.2177 17.4023 15.0199 17.0162 13.6272 17.0162C12.4013 17.0162 11.3835 17.3142 10.5756 17.9084C9.76772 18.5026 9.11354 19.3705 8.61119 20.5139C8.10884 21.6554 7.67397 23.1381 7.30095 24.9582C7.0779 25.9798 6.85484 26.7033 6.63178 27.1307C6.40872 27.558 6.14817 27.7717 5.85201 27.7717C5.5371 27.7717 5.31779 27.6424 5.19783 27.3818C5.07786 27.1213 5.01601 26.7408 5.01601 26.2403C5.01601 25.3125 5.19221 24.379 5.5446 23.4399C5.897 22.5027 8.13508 18.6694 11.5147 15.2429C14.2626 12.4575 13.5691 8.5212 13.5691 8.5212V3.40959C13.5691 2.00189 12.4276 0.860352 11.0198 0.860352C9.61214 0.860352 8.47061 2.00189 8.47061 3.40959V8.5212L8.46873 8.51745Z" fill="url(#paint2_linear_34_4705)"/>
<defs>
<linearGradient id="paint0_linear_34_4705" x1="27.3448" y1="17.5073" x2="113.998" y2="17.5073" gradientUnits="userSpaceOnUse">
<stop stop-color="#93278F"/>
<stop offset="1" stop-color="#29ABE2"/>
</linearGradient>
<linearGradient id="paint1_linear_34_4705" x1="10.1405" y1="3.77703" x2="10.1405" y2="15.3461" gradientUnits="userSpaceOnUse">
<stop stop-color="#93278F"/>
<stop offset="1" stop-color="#29ABE2"/>
</linearGradient>
<linearGradient id="paint2_linear_34_4705" x1="10.1407" y1="6.74235" x2="10.1407" y2="31.6724" gradientUnits="userSpaceOnUse">
<stop stop-color="#93278F"/>
<stop offset="1" stop-color="#29ABE2"/>
</linearGradient>
</defs>
</svg>
