<svg display="none" xmlns="http://www.w3.org/2000/svg">

	<symbol id="user" viewBox="0 0 30 35">
		<path
			d="M3 31.5V29.5C3 25.0818 6.58172 21.5 11 21.5H19C23.4182 21.5 27 25.0818 27 29.5V31.5M15 15.5C11.6862 15.5 9 12.8137 9 9.5C9 6.1863 11.6862 3.5 15 3.5C18.3138 3.5 21 6.1863 21 9.5C21 12.8137 18.3138 15.5 15 15.5Z"
			stroke-width="6" stroke-linecap="round" />
	</symbol>


	<symbol id="search" viewBox="0 0 23 23">
		<path
			d="M22.3672 22.3672C22.1667 22.5678 21.9286 22.727 21.6666 22.8355C21.4046 22.9441 21.1237 23 20.8401 23C20.5565 23 20.2756 22.9441 20.0136 22.8355C19.7516 22.727 19.5135 22.5678 19.313 22.3672L15.5014 18.5556C13.9332 19.5592 12.08 20.1597 10.0799 20.1597C4.51289 20.1597 0 15.6468 0 10.0799C0 4.51289 4.51289 0 10.0799 0C15.6468 0 20.1597 4.51289 20.1597 10.0799C20.1597 12.08 19.5592 13.9332 18.5556 15.5014L22.3672 19.313C22.5678 19.5135 22.727 19.7516 22.8355 20.0136C22.9441 20.2756 23 20.5565 23 20.8401C23 21.1237 22.9441 21.4046 22.8355 21.6666C22.727 21.9286 22.5678 22.1667 22.3672 22.3672ZM10.0799 2.87996C6.10407 2.87996 2.87996 6.10263 2.87996 10.0799C2.87996 14.0571 6.10407 17.2797 10.0799 17.2797C14.0571 17.2797 17.2797 14.0571 17.2797 10.0799C17.2797 6.10263 14.0571 2.87996 10.0799 2.87996Z" />
	</symbol>

	<symbol id="menu-icon1" viewBox="0 0 25 25">
		<path
			d="M24.1868 4.86898C24.1856 2.41587 22.6888 0.933666 20.2177 0.931419C17.541 0.929171 14.8643 0.931419 12.1864 0.931419C9.50857 0.931419 6.87004 0.931419 4.21129 0.931419C1.66604 0.932543 0.191701 2.39677 0.189453 4.92741C0.189453 10.2629 0.189453 15.5984 0.189453 20.9339C0.189453 23.4398 1.66716 24.9276 4.15848 24.9287C9.51194 24.931 14.8665 24.931 20.22 24.9287C22.6843 24.9287 24.1845 23.4375 24.1856 20.9878C24.1879 15.6152 24.1879 10.2427 24.1856 4.8701L24.1868 4.86898ZM14.7418 4.53635C16.2352 4.52512 17.7287 4.52512 19.2232 4.53635C20.0312 4.54197 20.5683 5.02742 20.5785 5.72189C20.5897 6.43321 20.0368 6.9299 19.1974 6.94114C19.0109 6.94339 18.8243 6.94451 18.6378 6.94564C18.0782 6.94788 17.5174 6.94339 16.9578 6.94339C16.4117 6.94339 15.8655 6.94788 15.3194 6.94564C15.1373 6.94564 14.9553 6.94339 14.7733 6.94114C13.9147 6.9299 13.3989 6.46356 13.4046 5.72526C13.4102 5.01057 13.9192 4.54197 14.7418 4.53635ZM3.79439 5.93428C3.79776 5.01057 4.25961 4.54085 5.17321 4.53635C7.06445 4.52624 8.95569 4.52512 10.8469 4.53635C11.7279 4.54197 12.1819 5.02068 12.1864 5.90843C12.1898 6.47929 12.1898 7.05014 12.1898 7.62212C12.1898 8.19298 12.1887 8.76384 12.1887 9.33582C12.1887 9.9078 12.1898 10.4775 12.1898 11.0495C12.1898 11.6204 12.1898 12.1912 12.1864 12.7632C12.1819 13.6487 11.7268 14.1263 10.8447 14.133C8.95345 14.1454 7.0622 14.1443 5.17096 14.133C4.25849 14.1274 3.79888 13.6566 3.79551 12.7317C3.78765 10.4663 3.78765 8.20085 3.79551 5.9354L3.79439 5.93428ZM4.7844 15.3601C4.98442 15.3219 5.19344 15.3231 5.39795 15.3219C7.68138 15.3197 9.96368 15.3208 12.2471 15.3208C14.5676 15.3208 16.8881 15.3141 19.2086 15.3242C20.1413 15.3287 20.7223 15.9793 20.5414 16.7761C20.4054 17.3716 19.9615 17.7132 19.2603 17.7267C18.5119 17.7413 17.7635 17.7301 17.0151 17.7301C13.1607 17.7301 9.30517 17.7301 5.45077 17.729C5.22715 17.729 4.99903 17.7301 4.78103 17.6885C4.18882 17.575 3.78203 17.0671 3.79888 16.494C3.81462 15.9389 4.21354 15.468 4.7844 15.3579V15.3601ZM19.5974 21.2867C19.3974 21.326 19.1884 21.326 18.9839 21.326C16.7196 21.3283 14.4552 21.3272 12.1909 21.3272C9.85243 21.3272 7.51282 21.3328 5.17321 21.3238C4.28995 21.3204 3.71011 20.7338 3.809 19.9843C3.89103 19.3629 4.36187 18.9426 5.05634 18.9224C5.76654 18.901 6.47786 18.9156 7.18918 18.9156C11.0998 18.9156 15.0115 18.9156 18.9221 18.9168C19.1457 18.9168 19.3738 18.9134 19.5918 18.955C20.1852 19.0673 20.5919 19.5719 20.5785 20.145C20.565 20.7024 20.1705 21.1721 19.5974 21.2845V21.2867ZM19.1974 14.1342C19.0109 14.1364 18.8243 14.1375 18.6378 14.1387C18.0782 14.1409 17.5174 14.1364 16.9578 14.1364C16.4117 14.1364 15.8655 14.1409 15.3194 14.1387C15.1373 14.1387 14.9553 14.1364 14.7733 14.1342C13.9147 14.1229 13.3989 13.6566 13.4046 12.9183C13.4102 12.2036 13.9192 11.735 14.7418 11.7294C16.2352 11.7181 17.7287 11.7181 19.2232 11.7294C20.0312 11.735 20.5683 12.2204 20.5785 12.9149C20.5897 13.6262 20.0368 14.1229 19.1974 14.1342ZM19.2626 10.536C19.0715 10.5405 18.8805 10.5427 18.6883 10.5438C18.1141 10.5472 17.5399 10.5405 16.9657 10.5405C16.2184 10.5405 15.4722 10.5517 14.7249 10.5371C13.908 10.5225 13.4012 10.0494 13.4023 9.33245C13.4034 8.6155 13.9102 8.14016 14.7306 8.13455C16.2431 8.12219 17.7556 8.12106 19.2671 8.13455C20.0357 8.14241 20.5594 8.63348 20.5762 9.30997C20.5931 10.0011 20.0526 10.5202 19.2614 10.5371L19.2626 10.536Z" />
	</symbol>

	<symbol id="menu-icon2" viewBox="0 0 19 25">
		<path
			d="M18.31 2.57607C18.31 2.11623 18.1442 1.74724 17.7021 1.56087C17.2676 1.37824 16.8799 1.49063 16.5362 1.79687C16.1522 2.14058 15.7513 2.46556 15.3861 2.828C15.1033 3.10896 14.8991 3.15953 14.5844 2.84205C14.0581 2.31103 13.4765 1.83433 12.9165 1.33703C12.3124 0.800399 11.8657 0.79478 11.27 1.32111C10.6969 1.82684 10.1115 2.32227 9.56646 2.85703C9.27052 3.14736 9.0804 3.11739 8.7985 2.84392C8.24969 2.31197 7.66717 1.81467 7.09307 1.30987C6.51617 0.802272 6.06008 0.805082 5.4813 1.31737C4.88566 1.84464 4.28253 2.36629 3.70562 2.91322C3.46774 3.13893 3.30853 3.12301 3.08283 2.90948C2.6642 2.51239 2.22964 2.13122 1.78853 1.75848C1.36616 1.40166 0.848253 1.38292 0.456781 1.68074C0.0868491 1.9617 0.0625 2.35973 0.0625 2.77649C0.0653096 6.14802 0.064372 9.51955 0.064372 12.8901C0.064372 16.3235 0.0662461 19.7578 0.0625 23.1911C0.0625 23.6818 0.186124 24.0967 0.672186 24.3C1.14607 24.4985 1.54785 24.3412 1.90935 24.0031C2.29707 23.6406 2.7129 23.3091 3.09407 22.9401C3.3282 22.7125 3.48835 22.7387 3.71686 22.9541C4.26099 23.4692 4.8304 23.9572 5.38858 24.4564C6.08817 25.081 6.48714 25.0885 7.17549 24.4779C7.74771 23.9703 8.32649 23.4702 8.88186 22.9448C9.11786 22.7219 9.27614 22.7369 9.50559 22.9513C10.0853 23.4964 10.6847 24.0199 11.2822 24.5463C11.8591 25.0539 12.3189 25.052 12.894 24.5425C13.4896 24.0152 14.0918 23.4936 14.6696 22.9467C14.9047 22.7238 15.0649 22.7313 15.2924 22.9467C15.7233 23.354 16.1718 23.7427 16.6223 24.1286C16.9473 24.4058 17.3238 24.4648 17.7162 24.2943C18.1152 24.122 18.2978 23.7933 18.309 23.3662C18.3137 23.1948 18.3137 23.0225 18.3137 22.8511C18.3137 17.5288 18.3137 12.2065 18.3137 6.88413C18.3137 5.44843 18.3128 4.01272 18.3118 2.57607H18.31ZM3.84142 9.10372C5.70794 9.07563 7.57539 9.07469 9.44284 9.10372C9.59924 9.10653 9.85773 9.35846 9.88208 9.52236C9.9289 9.8389 9.66573 9.9747 9.36417 9.97564C8.46135 9.97939 7.55947 9.97751 6.65665 9.97751V9.98032C5.83156 9.98032 5.00741 9.98032 4.18232 9.98032C4.05776 9.98032 3.90042 10.0197 3.81614 9.95972C3.6485 9.83984 3.52113 9.66377 3.3769 9.51112C3.53143 9.3697 3.68408 9.10653 3.84048 9.10372H3.84142ZM3.40125 12.9042C3.39469 12.7796 3.54735 12.5979 3.67566 12.5305C3.8152 12.4575 4.00812 12.4734 4.17764 12.4724C7.51826 12.4696 10.8589 12.4706 14.2004 12.4715C14.3409 12.4715 14.517 12.4312 14.6125 12.4996C14.7689 12.612 14.9572 12.7909 14.9712 12.9548C14.9815 13.0831 14.767 13.2629 14.6144 13.3584C14.5114 13.423 14.3409 13.3856 14.2014 13.3856C12.5156 13.3865 10.8289 13.3856 9.14315 13.3856C8.30776 13.3856 7.47237 13.3856 6.63792 13.3856C5.80253 13.3856 4.96714 13.3856 4.13268 13.3837C3.97909 13.3837 3.79085 13.4034 3.6794 13.3266C3.54641 13.2348 3.41062 13.0531 3.40312 12.9032L3.40125 12.9042ZM14.1527 16.773C12.4978 16.7796 10.8439 16.7758 9.18904 16.7758C7.53418 16.7758 5.84842 16.7758 4.17858 16.7758C4.05402 16.7758 3.90042 16.817 3.81051 16.7599C3.64662 16.6559 3.41717 16.4986 3.40874 16.3525C3.40031 16.2083 3.60822 16.0125 3.76743 15.9114C3.88169 15.8384 4.07087 15.8777 4.22634 15.8777C7.53512 15.8768 10.8439 15.8749 14.1536 15.8796C14.4983 15.8796 14.9656 15.7878 14.9834 16.3085C15.003 16.8854 14.5095 16.7721 14.1536 16.774L14.1527 16.773Z" />
	</symbol>

	<symbol id="menu-icon3" viewBox="0 0 26 25">
		<path
			d="M0.384164 7.94562C0.384164 8.93235 0.384164 9.86502 0.384164 10.7966C0.384164 14.6651 0.376743 18.5325 0.388401 22.401C0.3937 24.1392 1.20237 24.9256 2.9257 24.9256C7.79999 24.9256 12.6753 24.9256 17.5496 24.9256C19.4574 24.9256 21.3651 24.9394 23.2718 24.9203C24.8807 24.9034 25.9925 23.7661 25.9935 22.1795C25.9935 17.6401 25.9935 13.1008 25.9935 8.56246V7.94668H0.383103L0.384164 7.94562ZM11.2424 12.502C11.2467 12.202 11.2456 11.9021 11.2424 11.6021C11.2392 11.1528 11.4639 10.8963 11.908 10.8835C12.5418 10.8645 13.1777 10.8677 13.8126 10.8814C14.2853 10.892 14.5121 11.1655 14.5131 11.6297C14.5153 12.2116 14.5227 12.7934 14.5121 13.3753C14.5015 13.9465 14.3171 14.1214 13.7405 14.1352C13.4586 14.1416 13.1767 14.1363 12.8937 14.1363C11.6155 14.1522 11.3113 14.1797 11.2498 13.476C11.2297 13.2417 11.2361 12.9259 11.2414 12.5009L11.2424 12.502ZM4.93943 11.5438C4.95851 11.1252 5.19168 10.8899 5.61138 10.8825C6.24624 10.8698 6.88109 10.8666 7.51595 10.8825C7.95579 10.8931 8.19744 11.1284 8.1932 11.5873C8.19002 11.8872 8.1932 12.1872 8.1932 12.4871C8.1932 13.8289 8.1932 14.0811 7.30292 14.1278C7.09731 14.1384 6.844 14.1384 6.5324 14.1384C5.46477 14.1384 4.93131 13.6088 4.93202 12.5496C4.93202 12.2147 4.92459 11.8788 4.94049 11.5449L4.93943 11.5438ZM8.19108 20.4721C8.18154 21.1038 7.95791 21.3157 7.3167 21.3253C7.06975 21.3284 6.8228 21.3253 6.57585 21.3253C5.39411 21.3433 5.04754 21.3719 4.95533 20.7445C4.9193 20.4986 4.92248 20.1531 4.9299 19.6666C4.9352 19.3486 4.92035 19.0307 4.93943 18.7138C4.96487 18.2973 5.20228 18.0651 5.62093 18.0567C6.23882 18.045 6.85672 18.0461 7.47356 18.0556C7.93777 18.062 8.19426 18.292 8.19214 18.7763C8.18896 19.3412 8.19956 19.9061 8.19002 20.47L8.19108 20.4721ZM14.5121 20.5717C14.5004 21.1345 14.3065 21.3136 13.7288 21.3242C13.4289 21.3295 13.129 21.3242 12.829 21.3253C11.6505 21.3486 11.3336 21.3401 11.2583 20.7381C11.2286 20.5028 11.2361 20.1753 11.2424 19.7238C11.2467 19.4239 11.2371 19.1239 11.2445 18.824C11.2583 18.2973 11.4618 18.0715 11.9737 18.0577C12.5736 18.0418 13.1745 18.0418 13.7744 18.0577C14.281 18.0715 14.5004 18.3026 14.5121 18.824C14.5248 19.4059 14.5248 19.9888 14.5121 20.5717ZM20.8871 20.594C20.8786 21.1303 20.6879 21.3104 20.1431 21.3242C19.8432 21.3316 19.5432 21.3253 19.2433 21.3253C18.9433 21.3253 18.6434 21.3253 18.3435 21.3253C17.8973 21.3242 17.6376 21.0995 17.6249 20.6554C17.6069 20.0206 17.609 19.3847 17.6238 18.7488C17.6344 18.3068 17.8845 18.0651 18.3276 18.0577C18.9455 18.0482 19.5634 18.045 20.1813 18.0577C20.6476 18.0673 20.8924 18.3163 20.8914 18.7933C20.8892 19.3931 20.8988 19.9941 20.8882 20.594H20.8871ZM20.4091 14.1108C20.3625 14.1193 20.3106 14.1246 20.2544 14.1299C20.1982 14.1341 20.1367 14.1373 20.07 14.1394C19.8697 14.1447 19.6227 14.1405 19.3153 14.1373C18.9804 14.1341 18.6455 14.1363 18.3095 14.1341C17.8835 14.132 17.6387 13.9073 17.6249 13.4919C17.6037 12.84 17.6037 12.1861 17.6249 11.5343C17.6387 11.0839 17.9259 10.8804 18.3594 10.8761C18.9412 10.8708 19.5241 10.8634 20.1049 10.8761C20.69 10.8899 20.8786 11.0976 20.8882 11.6954C20.8924 11.9773 20.8882 12.2603 20.8882 12.5422C20.902 13.6911 20.9263 14.0207 20.4081 14.1087L20.4091 14.1108ZM0.386286 5.7231C0.386286 5.89056 0.411722 6.05801 0.4255 6.21381H25.9204C25.9204 5.34049 25.9225 4.51274 25.9204 3.68499C25.9161 2.38031 25.2145 1.35436 23.9342 1.11378C22.9305 0.925121 21.8802 0.983413 20.8023 0.93042C20.8023 1.77195 20.8098 2.49265 20.797 3.21335C20.7939 3.40095 20.7928 3.67439 20.6794 3.75706C20.4324 3.93724 20.1081 4.13331 19.8283 4.11635C19.4192 4.09092 19.2178 3.73269 19.2147 3.3151C19.2083 2.55836 19.2125 1.80162 19.2125 1.01203H6.45609C6.45609 1.76771 6.48577 2.49159 6.44126 3.21018C6.4243 3.4815 6.3003 3.82171 6.10422 3.98387C5.93146 4.12589 5.53295 4.16723 5.33688 4.06124C5.11961 3.94466 4.90658 3.61928 4.88962 3.37021C4.83345 2.58698 4.86842 1.79632 4.86842 0.978114C4.07883 0.978114 3.37402 0.975994 2.66922 0.978114C1.38891 0.983413 0.518767 1.74333 0.4255 3.0247C0.359789 3.92134 0.392646 4.82434 0.387347 5.72522L0.386286 5.7231Z" />
	</symbol>

	<symbol id="menu-icon4" viewBox="0 0 26 25">
		<path
			d="M25.3958 3.22087C25.3865 1.86862 24.4726 0.936106 23.1307 0.935072C16.5018 0.928869 9.87287 0.928869 3.24395 0.935072C1.89894 0.936106 0.988133 1.86552 0.978828 3.21984C0.970558 4.42528 0.973671 5.63073 0.977806 6.83514C0.982975 8.31455 1.8793 9.19641 3.37111 9.19641C6.62561 9.19641 9.88011 9.19641 13.1336 9.19641C14.7949 9.19641 16.4563 9.19641 18.1187 9.19641C19.7801 9.19641 21.4414 9.19641 23.1038 9.19434C24.455 9.1933 25.3845 8.28147 25.3958 6.93852C25.4062 5.69896 25.4051 4.4594 25.3958 3.21984V3.22087ZM7.22316 4.98872C7.22006 5.75375 6.96987 6.15695 6.43538 6.2717C5.98567 6.36785 5.61866 6.2076 5.3633 5.82922C5.09347 5.42913 5.14413 4.45319 5.45118 4.11513C5.75822 3.77707 6.14282 3.66438 6.57289 3.8329C7.12806 4.05 7.26038 4.50902 7.22213 4.98872H7.22316ZM11.863 5.02283C11.864 5.68449 11.6469 6.08768 11.2075 6.23965C11.1445 6.26136 11.0773 6.2779 11.006 6.28928C10.4797 6.37302 9.95661 6.00601 9.87494 5.47358C9.84082 5.25441 9.84496 5.02697 9.85427 4.8047C9.87908 4.19164 10.2823 3.7688 10.8374 3.75639C11.4071 3.74295 11.8371 4.18647 11.863 4.81607C11.8661 4.8843 11.863 4.95357 11.863 5.02283ZM15.6034 6.29134C15.1692 6.33063 14.8311 6.14971 14.615 5.77029C14.3742 5.34849 14.4445 4.42218 14.7453 4.10273C15.042 3.78741 15.4049 3.67989 15.8246 3.82152C16.3105 3.98487 16.5101 4.35395 16.507 5.06729C16.5039 5.80234 16.1906 6.23862 15.6034 6.29134ZM19.9103 6.27377C19.4151 6.14971 19.1391 5.75685 19.1194 5.14586C19.0957 4.3891 19.3159 3.9797 19.838 3.81429C20.5844 3.57754 21.154 4.10996 21.153 5.04351C21.1509 5.91296 20.6113 6.44849 19.9114 6.27377H19.9103ZM2.87178 11.2558C2.9276 12.9306 2.85213 14.5609 3.05993 16.1541C3.67092 20.8384 7.3617 24.2779 12.2527 24.8672C16.5649 25.3862 21.0341 22.661 22.7048 18.4957C23.171 17.3337 23.4388 16.1313 23.445 14.8773C23.4502 13.6781 23.446 12.4798 23.446 11.2568H2.87178V11.2558ZM13.2504 22.1027C10.8984 22.1513 8.88764 20.2325 8.83491 17.8919C8.78012 15.419 10.6524 13.4465 13.1067 13.3927C15.4628 13.341 17.4788 15.2567 17.5284 17.5932C17.5801 20.0516 15.682 22.0531 13.2504 22.1027ZM13.2039 15.6537C12.0449 15.6361 11.099 16.579 11.1011 17.7472C11.1031 18.8989 12.0119 19.8262 13.1532 19.8418C14.3059 19.8573 15.2602 18.9082 15.2602 17.7451C15.2602 16.6007 14.3452 15.6702 13.2039 15.6527V15.6537Z" />
	</symbol>

	<symbol id="menu-icon5" viewBox="0 0 19 25">
		<path
			d="M18.3309 8.46315V7.95988H17.7761C16.3704 7.95988 14.9646 7.96269 13.5588 7.95988C12.1971 7.95613 11.3236 7.10799 11.3049 5.75095C11.289 4.54855 11.3011 3.34521 11.3011 2.14281C11.3011 1.75481 11.3011 1.36776 11.3011 0.931032H10.8457C8.00321 0.931032 5.15981 0.929158 2.31734 0.931969C0.935939 0.933844 0.0531222 1.78949 0.0512478 3.17745C0.0428132 9.67492 0.0428132 16.1733 0.0512478 22.6708C0.0531222 24.0841 0.931253 24.9285 2.35202 24.9294C6.91327 24.9313 11.4745 24.9303 16.0348 24.9285C16.2363 24.9285 16.4435 24.9238 16.6393 24.8825C17.7152 24.6548 18.3281 23.8188 18.3291 22.5686C18.3328 17.8668 18.3309 13.1659 18.3309 8.46408V8.46315ZM11.273 20.0636C11.2028 20.4956 10.9047 20.6549 10.5008 20.6568C9.57956 20.6605 8.65737 20.6577 7.73612 20.6587C6.89266 20.6587 6.0492 20.6624 5.20574 20.6587C4.59844 20.6559 4.28918 20.4206 4.28168 19.9717C4.27418 19.5172 4.58626 19.2632 5.18231 19.2623C6.93202 19.2585 8.68174 19.2566 10.4315 19.2632C11.0284 19.2651 11.3518 19.5819 11.274 20.0645L11.273 20.0636ZM13.4295 17.8378C13.3058 17.8509 13.1802 17.8471 13.0546 17.8471C10.4774 17.8471 7.89919 17.8471 5.32195 17.8471C5.2123 17.8471 5.10265 17.8509 4.99393 17.8415C4.54315 17.804 4.27418 17.536 4.28074 17.1349C4.2873 16.7384 4.56002 16.4826 5.0183 16.4507C5.14295 16.4423 5.26853 16.447 5.39317 16.447C6.6743 16.447 7.95542 16.447 9.23655 16.447C10.5177 16.447 11.736 16.447 12.9862 16.447C13.1268 16.447 13.2683 16.4414 13.4079 16.4535C13.8344 16.4929 14.0911 16.7506 14.0977 17.1349C14.1043 17.521 13.8503 17.7918 13.4304 17.8368L13.4295 17.8378ZM4.28448 14.3046C4.29573 13.9728 4.47286 13.7451 4.80462 13.6692C4.93958 13.6383 5.0839 13.6364 5.22354 13.6354C7.86357 13.6336 10.5036 13.6336 13.1436 13.6354C13.2833 13.6354 13.4276 13.6364 13.5626 13.6673C13.9159 13.746 14.0949 13.9878 14.0921 14.3411C14.0893 14.6945 13.9046 14.9325 13.5495 15.0037C13.3986 15.0337 13.2392 15.0328 13.0837 15.0328C11.7866 15.0347 10.4905 15.0337 9.19343 15.0337C8.5449 15.0337 7.89637 15.0337 7.24878 15.0337C6.60025 15.0337 5.95173 15.0337 5.30413 15.0318C5.13357 15.0318 4.95644 15.0347 4.79244 14.9944C4.441 14.9081 4.27324 14.6551 4.28542 14.3037L4.28448 14.3046ZM13.3564 12.2184C13.2317 12.2269 13.1062 12.2222 12.9815 12.2222C11.7163 12.2222 10.4511 12.2222 9.185 12.2222C7.90387 12.2222 6.62275 12.2222 5.34162 12.2222C5.18605 12.2222 5.02767 12.2259 4.87397 12.2025C4.49629 12.1444 4.28823 11.9073 4.28448 11.5315C4.28073 11.1557 4.47943 10.912 4.85711 10.8473C5.00987 10.8211 5.16825 10.8239 5.32382 10.8239C7.90107 10.823 10.4793 10.8239 13.0565 10.8239C13.1502 10.8239 13.2439 10.8211 13.3377 10.8267C13.8212 10.8567 14.1033 11.1229 14.0949 11.539C14.0865 11.9363 13.8147 12.1894 13.3555 12.2203L13.3564 12.2184ZM13.5335 6.55411C14.4688 6.56067 15.4051 6.55599 16.3413 6.55599C16.8305 6.55599 17.3197 6.55599 17.7527 6.55599C16.0686 4.87468 14.3892 3.19807 12.7247 1.53645C12.7313 1.51583 12.706 1.55801 12.706 1.60112C12.7032 2.98908 12.6947 4.37704 12.706 5.76501C12.7107 6.30482 12.9815 6.54943 13.5326 6.55317L13.5335 6.55411Z" />
	</symbol>

	<symbol id="menu-icon6" viewBox="0 0 27 25">
		<path
			d="M25.8922 20.578C22.5133 14.5821 19.1246 8.5923 15.7531 2.59261C15.1809 1.5745 14.3796 0.932913 13.198 0.930436C12.0164 0.92672 11.2075 1.5584 10.6353 2.57775C7.25399 8.59478 3.85286 14.6019 0.465341 20.6164C-0.748468 22.7703 0.522314 24.9255 3.00195 24.9279C4.69385 24.9304 6.38451 24.9304 8.07642 24.9304C9.76832 24.9304 11.459 24.9304 13.1509 24.9304C14.8527 24.9304 16.5545 24.9304 18.2563 24.9304C19.9581 24.9304 21.6599 24.9304 23.3617 24.9292C25.8773 24.9267 27.132 22.7753 25.8947 20.578H25.8922ZM13.1658 20.822C12.4622 20.8084 11.8751 20.2164 11.8689 19.5153C11.8627 18.7871 12.4697 18.1938 13.2128 18.2049C13.9275 18.2148 14.5034 18.792 14.5096 19.5017C14.5158 20.225 13.8928 20.8369 13.1658 20.822ZM14.5121 15.4156C14.4997 16.2975 13.9349 16.8772 13.1583 16.8586C12.4065 16.8412 11.8962 16.274 11.8615 15.4169C11.8603 15.376 11.8615 15.3339 11.8615 15.293C11.8615 14.7158 11.8615 14.1399 11.8615 13.5627C11.8615 12.9447 11.8491 12.3266 11.8652 11.7086C11.8875 10.8453 12.3978 10.2904 13.1583 10.2768C13.9522 10.2619 14.4997 10.818 14.5133 11.7073C14.5319 12.9434 14.5307 14.1795 14.5133 15.4144L14.5121 15.4156Z" />
	</symbol>

	<symbol id="menu-icon7" viewBox="0 0 26 25">
		<path
			d="M1.80887 9.20095C1.80887 14.0211 1.80887 18.8422 1.80887 23.6623C1.80887 24.6389 2.09525 24.9293 3.06994 24.9293C9.79894 24.9313 16.5279 24.9303 23.256 24.9293C24.2563 24.9293 24.5437 24.635 24.5437 23.6307C24.5437 18.8264 24.5437 14.023 24.5437 9.21873V8.68645H1.80788V9.20095H1.80887ZM8.44405 12.8054C8.44997 12.0371 8.78278 11.6954 9.56194 11.6895C10.8121 11.6796 12.0614 11.6866 13.3116 11.6866C14.4462 11.6866 15.5809 11.6826 16.7156 11.6885C17.5767 11.6925 17.9055 12.0273 17.9115 12.8874C17.9144 13.3644 17.9164 13.8413 17.9115 14.3183C17.9026 15.1113 17.5629 15.454 16.758 15.4599C15.5572 15.4678 14.3574 15.4619 13.1565 15.4619C11.9725 15.4619 10.7884 15.4668 9.60439 15.4599C8.76796 15.455 8.448 15.1251 8.44405 14.2857C8.44207 13.792 8.4401 13.2992 8.44405 12.8054ZM24.3956 0.931407C16.9131 0.931407 9.4296 0.931407 1.94711 0.931407C1.76639 0.931407 1.5837 0.927457 1.40496 0.949183C0.916134 1.00745 0.561603 1.33531 0.556665 1.81821C0.539878 3.65698 0.54977 5.49575 0.54977 7.36119H25.7919C25.8087 7.29404 25.8225 7.26342 25.8225 7.23182C25.8255 5.60339 25.8275 3.97595 25.8285 2.34752C25.8285 1.20989 25.546 0.93042 24.3946 0.93042L24.3956 0.931407Z" />
	</symbol>

	<symbol id="menu-icon8" viewBox="0 0 25 25">
		<path
			d="M12.1828 0.93042C5.56834 0.932295 0.195947 6.2925 0.18751 12.9004C0.179073 19.5411 5.54116 24.9248 12.1706 24.9304C18.8086 24.936 24.1866 19.5683 24.1884 12.936C24.1903 6.3 18.8189 0.928546 12.1828 0.93042ZM12.555 18.3909C12.2034 18.4425 11.8154 18.3759 11.4676 18.2775C11.1301 18.1819 10.9623 17.9044 10.9679 17.521C10.9754 17.0448 10.9764 16.5695 10.9754 16.0933C10.9754 15.6171 10.9726 15.1418 10.9726 14.6656C10.9726 14.1978 10.9754 13.7291 10.9764 13.2613C10.9764 12.7936 10.9764 12.3248 10.967 11.8571C10.9585 11.4071 11.1638 11.1174 11.5754 11.0424C11.9494 10.9749 12.3534 10.9534 12.7256 11.019C13.2477 11.1109 13.4127 11.3771 13.4127 11.9096C13.4146 13.7197 13.4127 15.5299 13.4127 17.3391C13.4127 18.0085 13.2234 18.2906 12.555 18.3891V18.3909ZM12.1641 9.46944C11.4769 9.46194 10.9004 8.9576 10.892 8.35484C10.8826 7.74739 11.4948 7.21587 12.196 7.22149C12.8756 7.22711 13.4633 7.74457 13.4652 8.33984C13.468 8.96135 12.8737 9.47694 12.1641 9.46944Z"/>
	</symbol>

</svg>